PathFileType	4	(X/Y/Z)	C:/Users/opensim2020/Desktop/walking_exp_matlab/subject02_walking09_straight_04.trc																																																																																																																												
DataRate	CameraRate	NumFrames	NumMarkers	Units	OrigDataRate	OrigDataStartFrame	OrigNumFrames																																																																																																																								
100	100	4	42	mm	100	3256	285																																																																																																																								
Frame#	Time	LFHD			RFHD			LBHD			RBHD			C7			T10			CLAV			STRN			RBAK			LSHO			LUPA			LELB			LFRM			LWRA			LWRB			LFIN			RSHO			RUPA			RELB			RFRM			RWRA			RWRB			RFIN			LASI			RASI			LPSI			RPSI			LTHI			LKNE			LTIB			LANK			LHEE			LTOE			RTHI			RKNE			RTIB			RANK			RHEE			RTOE			*39			*40			*41		
		X1	Y1	Z1	X2	Y2	Z2	X3	Y3	Z3	X4	Y4	Z4	X5	Y5	Z5	X6	Y6	Z6	X7	Y7	Z7	X8	Y8	Z8	X9	Y9	Z9	X10	Y10	Z10	X11	Y11	Z11	X12	Y12	Z12	X13	Y13	Z13	X14	Y14	Z14	X15	Y15	Z15	X16	Y16	Z16	X17	Y17	Z17	X18	Y18	Z18	X19	Y19	Z19	X20	Y20	Z20	X21	Y21	Z21	X22	Y22	Z22	X23	Y23	Z23	X24	Y24	Z24	X25	Y25	Z25	X26	Y26	Z26	X27	Y27	Z27	X28	Y28	Z28	X29	Y29	Z29	X30	Y30	Z30	X31	Y31	Z31	X32	Y32	Z32	X33	Y33	Z33	X34	Y34	Z34	X35	Y35	Z35	X36	Y36	Z36	X37	Y37	Z37	X38	Y38	Z38	X39	Y39	Z39	X40	Y40	Z40	X41	Y41	Z41	X42	Y42	Z42
																																																																																																																															
250	2.49	1067.79492	1708.51099	-1510.26819	1038.27673	1686.67505	-1371.02332	926.47083	1670.38293	-1545.77222	885.91071	1650.15527	-1407.66895	834.35297	1523.41931	-1482.28491	778.88922	1243.7522	-1477.72668	971.24677	1449.61523	-1485.18359	1021.4588	1278.76575	-1478.21509	770.53864	1344.13013	-1421.83142	918.72351	1499.17834	-1655.52551	971.17377	1315.39063	-1754.9751	1031.29919	1188.33179	-1783.12402	1113.36096	1082.46619	-1790.4408	1219.78894	1006.15839	-1743.39539	1187.84814	985.54303	-1785.49976	1241.97217	948.11926	-1786.28345	900.37592	1481.15295	-1291.32458	853.0517	1291.44714	-1214.97156	855.66528	1144.61902	-1198.79114	879.79669	1027.33594	-1176.08301	931.55908	901.20099	-1185.5083	879.93176	897.4574	-1163.3844	915.90442	834.77386	-1153.90955	1011.23108	983.64758	-1612.44043	1016.82831	974.26105	-1356.09436	801.84979	1023.87793	-1526.02673	799.09558	1022.70856	-1412.1228	923.68463	671.00659	-1647.98547	872.11877	472.87949	-1611.41797	792.41711	293.81506	-1606.2168	768.76025	72.96372	-1561.28772	730.49579	48.89847	-1509.59302	922.93872	27.61742	-1572.35864	996.3905	675.74042	-1267.12659	1059.33472	475.53925	-1296.2196	1056.16089	288.17035	-1293.6593	1091.43359	97.24635	-1322.27295	1091.41492	40.1416	-1386.66138	1238.31189	67.34492	-1264.2002	971.51044	1796.06506	-1433.97241	NaN	NaN	NaN	NaN	NaN	NaN
251	2.5	1075.57739	1707.4082	-1508.26379	1045.51062	1685.28638	-1369.0708	934.23523	1669.69446	-1544.09485	893.11761	1649.53625	-1406.23584	841.39307	1522.74915	-1481.05359	785.66327	1243.05042	-1476.67896	978.01599	1448.82422	-1483.83521	1028.37512	1278.12024	-1477.05164	777.69092	1343.34155	-1420.49536	925.78351	1498.62366	-1654.24426	978.66156	1314.89343	-1753.59351	1039.75476	1188.46582	-1781.92871	1122.85864	1083.30566	-1788.7616	1229.83691	1008.16602	-1741.05237	1198.28479	987.08356	-1783.20935	1252.96436	950.42651	-1783.67822	907.15552	1480.35498	-1290.08386	859.36603	1290.71631	-1213.71448	861.42352	1143.96912	-1198.02893	885.74384	1026.61023	-1174.80896	937.05341	900.27063	-1184.52185	885.34503	896.5993	-1162.51501	921.08246	833.6499	-1153.03455	1017.91785	983.05524	-1611.95325	1024.07617	973.53467	-1355.56372	808.77246	1023.30243	-1524.98181	806.26453	1021.84436	-1411.06482	928.30981	670.87225	-1647.64709	875.58057	472.92972	-1611.1366	794.23083	294.61377	-1605.92981	769.02319	73.69323	-1561.28845	730.70886	50.0108	-1509.55652	922.94006	27.57872	-1572.50012	1002.94995	674.54474	-1266.9292	1066.2251	474.10092	-1297.93774	1068.49329	287.15524	-1294.84229	1109.16736	97.01233	-1322.6936	1110.89063	40.13899	-1386.64783	1257.24512	69.72121	-1264.76746	979.33832	1795.01233	-1431.93213	-2845.9978	1034.12366	3356.96753	NaN	NaN	NaN
252	2.51	1083.18164	1706.04871	-1505.90771	1052.66333	1683.90796	-1366.99609	941.90454	1668.98694	-1542.34314	900.18805	1648.80652	-1404.70471	848.38513	1522.0509	-1479.64429	792.79578	1242.2594	-1475.35413	985.18585	1448.22302	-1482.38477	1035.35364	1277.43445	-1475.7655	784.7309	1342.45142	-1419.2981	932.86218	1498.07983	-1652.85144	986.2713	1314.65588	-1752.21667	1047.7406	1188.16797	-1780.58716	1131.91882	1083.82214	-1786.86292	1239.46692	1009.97754	-1738.69971	1208.20337	988.32123	-1780.76196	1263.19299	952.19403	-1781.0625	913.97113	1479.44165	-1288.6416	865.94067	1289.8988	-1212.20813	867.80029	1143.12439	-1196.75476	891.21991	1025.6687	-1174.01013	942.81836	899.37885	-1183.44287	891.02289	895.82416	-1161.37451	926.6319	832.81616	-1152.04834	1024.62219	982.34119	-1611.39746	1031.39966	972.65527	-1355.01233	815.77234	1022.7373	-1523.8009	813.41705	1021.02405	-1409.85303	933.10834	670.64117	-1647.30225	879.28125	473.00632	-1610.90393	796.45612	295.30814	-1605.55103	769.32733	74.52091	-1561.37024	730.74097	51.05883	-1509.56287	923.01849	27.55529	-1572.677	1009.27081	673.10693	-1266.83362	1073.57947	473.15109	-1299.34351	1080.3761	286.18451	-1295.92078	1126.17151	97.14011	-1323.33398	1129.2146	41.01144	-1388.10986	1274.89185	72.12237	-1265.43726	987.15186	1794.02588	-1429.84119	NaN	NaN	NaN	NaN	NaN	NaN
253	2.52	1090.87268	1704.7998	-1503.55286	1059.77844	1682.55359	-1364.75818	949.58307	1668.32104	-1540.46838	907.37903	1648.03552	-1403.02917	855.51459	1521.44519	-1478.29114	799.8269	1241.44165	-1474.05188	991.95282	1447.37964	-1480.82251	1042.39001	1276.74512	-1474.34204	791.29047	1341.69653	-1418.27332	939.93793	1497.4845	-1651.36963	993.55341	1314.1571	-1750.70862	1055.44617	1187.87109	-1779.05872	1140.36938	1084.07922	-1784.82483	1248.51221	1011.39435	-1736.27686	1217.47607	989.21381	-1778.22156	1272.85132	953.65558	-1778.36694	920.47919	1478.54932	-1287.3053	872.37457	1289.03174	-1210.85864	874.23065	1142.15674	-1195.65515	897.60333	1024.85779	-1172.77686	948.72125	898.32092	-1182.24561	896.78748	894.8739	-1160.26868	932.07849	831.72015	-1151.06885	1031.39722	981.63452	-1610.8075	1038.59094	971.57251	-1354.39063	822.79034	1022.14374	-1522.50562	820.74579	1020.15417	-1408.53772	938.1261	670.36188	-1646.84741	883.27942	472.96466	-1610.61389	798.67426	296.09625	-1605.40515	769.68713	75.2711	-1561.46448	731.02759	52.03164	-1509.66077	922.95728	27.44855	-1572.69861	1015.61047	671.49384	-1266.88367	1080.87915	471.98141	-1300.797	1091.82507	285.45309	-1296.99487	1141.65955	97.16248	-1323.90588	1146.20911	41.59612	-1389.19226	1291.23096	74.52183	-1266.01306	994.99475	1793.13855	-1427.7356	-2845.94287	1034.12671	3356.83472	NaN	NaN	NaN
